<?xml version="1.0" encoding="utf-8"?>
<!-- Generator: Adobe Illustrator 23.0.1, SVG Export Plug-In . SVG Version: 6.00 Build 0)  -->
<svg version="1.1" id="Capa_1" xmlns="http://www.w3.org/2000/svg" xmlns:xlink="http://www.w3.org/1999/xlink" x="0px" y="0px"
	 viewBox="0 0 194.12 194.12" style="enable-background:new 0 0 194.12 194.12;" xml:space="preserve">
<style type="text/css">
	.st0{opacity:0.6;fill:#A2C495;stroke:#A2C495;stroke-width:2.8399;stroke-miterlimit:10;}
	.st1{fill:#C4B3A5;}
</style>
<g>
	<circle class="st0" cx="96.99" cy="98" r="94.01"/>
	<g>
		<path class="st1" d="M87.91,148.7c9.05,0.04,19.46-6.32,26.05-12.19c16.08-14.33,16.37-39.32,14.16-59.06
			c-1.3-11.61-4.8-23-10.2-33.36c-3.61-6.93-8.07-14.29-13.32-20.39c0.2,2.07,0.37,4-0.26,6.29c-1.27,4.58-3.52,9.08-6.08,13.08
			c-4.96,7.75-10.38,15.17-15.17,23.06c-10.61,17.43-20.39,37.21-17.82,58.2C66.69,135.9,74.8,148.65,87.91,148.7z"/>
		<g>
			<g>
				<path d="M101.46,20.53c-0.03-0.06-0.06-0.12-0.09-0.18c-0.57-1.08,1.78-0.21,2.06,0.08c13.04,13.23,22.13,32.15,25.77,50.18
					c4.22,20.88,4.62,48.87-10.97,65.45c-6.12,6.51-15.76,12.23-24.55,14.06c-8.71,1.81-16.87-2.29-22.98-8.34
					c-6.58-6.53-7.88-15.12-8.4-24c-0.31-5.31,0.7-10.15,1.88-15.32c1.36-5.98,2.58-11.82,5.39-17.31
					c3.11-6.08,6.38-12.15,9.8-18.05c3.16-5.46,6.95-10.52,10.14-15.92c3.09-5.23,6.76-9.91,9.59-15.32
					c1.33-2.53,2.47-5.29,3.02-8.11c0.53-2.68-0.22-4.92-0.33-7.57c0.82,0.31,1.64,0.63,2.46,0.94c-0.05,0.19-0.09,0.39-0.14,0.58
					c-0.24,1.05-2.65-0.1-2.46-0.94c0.05-0.19,0.09-0.39,0.14-0.58c0.25-1.09,2.42,0.11,2.46,0.94c0.14,3.26,0.87,5.8-0.04,9.07
					c-1.27,4.58-3.52,9.08-6.08,13.08c-4.96,7.75-10.38,15.17-15.17,23.05c-10.61,17.43-20.39,37.21-17.82,58.2
					c1.42,11.57,9.53,24.31,22.64,24.37c9.05,0.04,19.46-6.32,26.05-12.19c16.08-14.33,16.37-39.32,14.16-59.06
					c-1.3-11.61-4.8-23-10.2-33.36c-4.24-8.14-9.65-16.9-16.14-23.48c0.69,0.03,1.38,0.05,2.06,0.08c0.03,0.06,0.06,0.12,0.09,0.18
					C104.36,22.04,101.86,21.28,101.46,20.53L101.46,20.53z"/>
			</g>
		</g>
		<g>
			<g>
				<path d="M105.46,23.18c0.81,6.92,1.38,13.84,2.44,20.73c1.03,6.71,1.96,13.41,2.08,20.2c0.23,13.52-1.63,27.35-5.09,40.4
					c-3.55,13.4-9.3,26.22-15.77,38.45c-6.2,11.73-13.25,23.01-21.93,33.1c-0.57,0.66-2.59-0.52-2.12-1.06
					c8.68-10.09,15.73-21.38,21.93-33.1c6.23-11.79,11.78-24.12,15.37-36.98c3.73-13.37,5.66-27.66,5.42-41.56
					c-0.11-6.8-1.05-13.49-2.08-20.2c-1.06-6.9-1.63-13.81-2.44-20.73C103.17,21.62,105.36,22.37,105.46,23.18L105.46,23.18z"/>
			</g>
		</g>
		<g>
			<g>
				<path d="M110.65,34.01c0.01-0.05,0.03-0.11,0.04-0.16c0.19-0.77,2.59,0.32,2.41,1.12c-1.3,5.91-1.7,12.07-3.67,17.83
					c-0.18,0.51-1.27,0.09-1.51-0.06c-2.08-1.27-3.71-3.45-5.18-5.37c-1.11-1.44-2.29-2.83-3.4-4.27c-0.6-0.78-0.97-2.13-1.58-2.79
					c-1.2-1.29,1.07-1.1,1.76-0.37c1.4,1.5,2.41,3.58,3.7,5.25c1.53,1.99,3.16,5.02,5.36,6.36c-0.5-0.02-1.01-0.04-1.51-0.06
					c1.93-5.64,2.32-11.69,3.58-17.47c0.8,0.37,1.61,0.75,2.41,1.12c-0.01,0.05-0.03,0.11-0.04,0.16
					C112.83,36.09,110.41,35,110.65,34.01L110.65,34.01z"/>
			</g>
		</g>
		<g>
			<g>
				<path d="M119.85,44.98c-2.54,5.67-5.12,11.67-7.17,17.53c-0.6,1.71-0.97,5.39-3.29,5.45c-0.58,0.01-1.63-0.52-1.79-1.14
					c-1.36-5.19-5.25-9.4-9.03-12.94c-2.3-2.15-3.76-4.72-5.76-7.11c-0.92-1.1,1.46-0.66,1.95-0.14c0.06,0.07,0.12,0.13,0.18,0.2
					c1.2,1.29-1.08,1.1-1.76,0.37c-0.06-0.07-0.12-0.13-0.18-0.2c0.65-0.05,1.3-0.09,1.95-0.14c1.45,1.73,2.66,3.86,4.16,5.52
					c1.54,1.7,3.44,2.95,4.95,4.7c2.46,2.84,4.95,6.59,5.92,10.28c-0.6-0.38-1.2-0.76-1.79-1.14c1.02-0.02,3.13-7.42,3.48-8.21
					c2.07-4.72,3.72-9.6,5.83-14.31C117.85,42.85,120.24,44.09,119.85,44.98L119.85,44.98z"/>
			</g>
		</g>
		<g>
			<g>
				<path d="M124.2,54.73c1.19,1.04,0.55,2.03-0.04,3.32c-1.72,3.71-3.77,7.39-5.87,10.9c-2.11,3.54-4.16,7.24-6.42,10.68
					c-0.86,1.31-1.6,2.53-3.35,2.34c-1.38-0.15-1.87-1.1-2.61-2.09c-2.43-3.29-4.89-6.37-7.57-9.5c-4.23-4.93-8.48-9.91-12.12-15.31
					c0.71,0.03,1.42,0.06,2.13,0.08c0.1,0.16,0.19,0.32,0.29,0.48c0.78,1.3-1.69,0.66-2.13-0.08c-0.1-0.16-0.19-0.32-0.29-0.48
					c-0.8-1.32,1.67-0.6,2.13,0.08c5.46,8.1,12.78,14.71,18.39,22.68c0.67,0.95,0.77,1.98,1.73,1.74c0.63-0.16,1.28-1.54,1.63-2.11
					c1.7-2.77,3.25-5.63,4.96-8.4c0.76-1.24,8.24-13.21,7.39-13.96C121.13,53.95,123.48,54.09,124.2,54.73L124.2,54.73z"/>
			</g>
		</g>
		<g>
			<g>
				<path d="M128.74,69.91c-4.32,6.16-8.73,12.32-12.99,18.51c-1.78,2.58-3.69,5.13-5.92,7.35c-0.8,0.8-2.79,3.56-4.1,3.85
					c-0.68,0.15-1.83-0.43-2.04-1.12c-0.81-2.64-3.49-5.18-4.96-7.52c-2.15-3.41-4.76-6.47-6.99-9.81
					c-1.95-2.91-4.25-5.08-5.71-8.31c-1.38-3.04-2.41-6.24-3.73-9.28c0.79,0.18,1.58,0.35,2.37,0.53c0.07,0.24,0.15,0.48,0.22,0.71
					c0.36,1.16-2.12,0.3-2.37-0.53c-0.07-0.24-0.15-0.48-0.22-0.71c-0.38-1.22,2.06-0.18,2.37,0.53c1.23,2.82,2.16,5.79,3.45,8.63
					c1.77,3.9,4.85,7.5,7.34,11.03c2.16,3.07,4.43,6.02,6.54,9.14c1.34,1.98,3.37,3.8,4.08,6.13c-0.68-0.37-1.36-0.75-2.04-1.12
					c0.99-0.22,4.62-4.81,5.19-5.42c2.09-2.26,3.62-4.74,5.44-7.19c4.06-5.47,7.82-11.1,11.73-16.67
					C126.93,67.81,129.25,69.18,128.74,69.91L128.74,69.91z"/>
			</g>
		</g>
		<g>
			<g>
				<path d="M131.15,87.69c-3.52,7.72-9.54,11.81-15.63,17.36c-2.92,2.66-5.85,4.89-9,7.21c-2.17,1.6-3.96,4.53-6.5,5.47
					c-0.61,0.23-1.9-0.49-2.04-1.12c-0.96-4.32-3.84-8.1-6.11-11.83c-2.31-3.8-3.55-7.84-5.64-11.73
					c-2.14-3.98-4.36-7.91-6.57-11.86c-1.55-2.77-2.84-6.45-2.42-9.67c0.14-1.03,2.57,0.06,2.46,0.94
					c-0.61,4.65,2.17,8.69,4.35,12.5c2.03,3.57,4.16,7.28,5.76,11.07c1.65,3.92,3.36,7.48,5.57,11.12c1.94,3.21,4.15,6.26,4.98,9.98
					c-0.68-0.37-1.36-0.75-2.04-1.12c2.43-0.9,4.84-4.46,7.05-5.96c2.92-1.97,5.45-4.18,8.06-6.57c5.9-5.42,11.94-9.56,15.37-17.09
					C129.16,85.56,131.56,86.8,131.15,87.69L131.15,87.69z"/>
			</g>
		</g>
		<g>
			<g>
				<path d="M131.04,104.53c-2.45,2.07-4.43,4.82-6.8,7c-3.17,2.91-6.9,5.1-10.4,7.59c-3.24,2.3-6.49,4.45-9.86,6.51
					c-2.34,1.43-3.88,4.03-6.72,4.57c-0.67,0.13-1.85-0.41-2.04-1.12c-0.62-2.31-2.79-4.25-4.03-6.19c-1.31-2.06-2.1-4.29-2.99-6.55
					c-1.68-4.23-3.63-8.32-5.6-12.41c-2.13-4.4-4.8-8.59-6.22-13.31c-1.38-4.58-1.46-9.66-1.98-14.4c0.82,0.31,1.64,0.63,2.46,0.94
					c-0.03,0.13-0.06,0.27-0.09,0.4c-0.23,1.05-2.64-0.09-2.46-0.94c0.03-0.13,0.06-0.27,0.09-0.4c0.24-1.12,2.37,0.15,2.46,0.94
					c0.56,5.11,0.66,10.62,2.39,15.48c1.66,4.69,4.39,9.33,6.73,13.72c1.88,3.54,3.42,7.47,4.85,11.22
					c1.14,2.99,2.57,5.48,4.45,8.09c0.84,1.17,1.94,2.52,2.32,3.94c-0.68-0.37-1.36-0.75-2.04-1.12c2.36-0.44,2.78-2.31,4.49-3.5
					c1.24-0.86,2.72-1.34,4.03-2.11c3.12-1.87,5.97-4.15,8.95-6.23c3.1-2.16,6.32-4.1,9.12-6.67c2.39-2.19,4.34-4.92,6.8-7
					C129.6,102.39,131.84,103.85,131.04,104.53L131.04,104.53z"/>
			</g>
		</g>
		<g>
			<g>
				<path d="M127.3,121.76c-1.83,1.09-3.33,2.6-5.16,3.7c-2.15,1.29-4.62,1.98-6.74,3.31c-3.56,2.22-6.99,4.57-10.63,6.65
					c-5.15,2.95-12.71,5.55-16.24-0.39c-4.62-7.77-8.42-16.01-12.14-24.2c-3.63-7.98-9.69-15.43-7.34-24.73
					c0.19-0.77,1.83,0.24,2.06,0.47c0.07,0.07,0.14,0.14,0.21,0.21c1.25,1.24-1.06,1.06-1.76,0.37c-0.07-0.07-0.14-0.14-0.21-0.21
					c0.69,0.16,1.37,0.31,2.06,0.47c-2.11,8.37,3.21,15.37,6.64,22.51c3.45,7.17,6.66,14.48,10.53,21.46
					c0.63,1.13,1.71,4.32,2.78,4.99c1.5,0.94,4.77-0.02,6.36-0.44c3.64-0.97,6.19-3.18,9.37-4.92c3.01-1.65,5.78-3.64,8.88-5.14
					c3.38-1.63,6.04-3.77,9.21-5.67C125.97,119.72,128.13,121.26,127.3,121.76L127.3,121.76z"/>
			</g>
		</g>
		<g>
			<g>
				<path d="M117.12,137.01c-3.47,4.4-10.15,7.68-15.66,8.43c-3.24,0.45-6.91,1.03-10.18,1.04c-1.84,0.01-2.7-0.42-3.93-1.6
					c-5.32-5.08-10.17-10.98-14.39-17.01c-4.42-6.31-8.71-11.9-9.44-19.76c-0.04-0.47,0.65-0.41,0.91-0.37
					c0.13,0.02,0.25,0.04,0.38,0.06c1,0.15,2.38,1.93,0.63,1.68c-0.13-0.02-0.25-0.04-0.38-0.06c0.3-0.12,0.61-0.25,0.91-0.37
					c0.68,7.26,4.56,12.52,8.7,18.27c3.54,4.93,7.33,9.78,11.57,14.11c1.88,1.92,2.07,3.25,4.71,3.11c2.85-0.15,5.98-0.38,8.8-0.84
					c5.22-0.84,11.66-3.77,15-8.01C115.36,134.93,117.65,136.33,117.12,137.01L117.12,137.01z"/>
			</g>
		</g>
	</g>
</g>
</svg>
